<svg width="110" height="40" viewBox="0 0 110 40" fill="none" xmlns="http://www.w3.org/2000/svg">
<path d="M33.7821 8.63786L19.6753 0.495192C18.5308 -0.165064 17.1085 -0.165064 15.9625 0.495192L1.8557 8.63786C0.711157 9.30102 0 10.5314 0 11.8548V28.1445C0 29.4679 0.711157 30.6983 1.8557 31.36C5.36058 33.3596 12.4954 37.5175 15.9625 39.5026C17.1056 40.1658 18.5308 40.1658 19.6753 39.5026C22.805 37.6964 30.5695 33.2142 33.7821 31.36C34.9267 30.6997 35.6378 29.4679 35.6378 28.1445V11.8548C35.6378 10.5314 34.9267 9.30102 33.7821 8.63786ZM33.4113 28.1445C33.4113 28.6709 33.1277 29.1669 32.6681 29.4286C31.2967 30.2212 24.0833 34.3864 22.8792 35.083C21.198 36.133 18.9045 34.8605 18.9336 32.8579V22.2502C18.9336 22.1077 19.0878 22.0175 19.2114 22.0888L28.0783 27.2065C28.2572 27.3083 28.4826 27.2486 28.5844 27.0712L29.3276 25.7856C29.4308 25.6067 29.3697 25.3813 29.1923 25.2795L20.3269 20.1589C20.2032 20.0876 20.2032 19.9087 20.3269 19.8375L29.1923 14.7198C29.3712 14.618 29.4323 14.3896 29.3276 14.2137L28.5844 12.9281C28.4826 12.7492 28.2557 12.6881 28.0783 12.7928L19.2114 17.9105C19.0878 17.9818 18.9336 17.8931 18.9336 17.7491V10.5401C18.9336 10.4383 19.0165 10.3539 19.1198 10.3539H20.2338C20.5305 10.3539 20.7064 10.0238 20.5421 9.77658L18.1309 6.17426C17.9825 5.95466 17.6611 5.95466 17.5128 6.17426L15.1015 9.77658C14.9372 10.0224 15.1132 10.3539 15.4098 10.3539H16.5209C16.6227 10.3539 16.7071 10.4368 16.7071 10.5401V17.7491C16.7071 17.8916 16.5529 17.9818 16.4293 17.9105L7.56385 12.7928C7.38497 12.6896 7.15956 12.7506 7.05485 12.9281L6.3117 14.2137C6.20989 14.3896 6.27098 14.618 6.4484 14.7198L15.3139 19.8375C15.4375 19.9087 15.4375 20.0876 15.3139 20.1589L6.4484 25.2795C6.26952 25.3813 6.20844 25.6082 6.3117 25.7856L7.05485 27.0712C7.1581 27.2501 7.38497 27.3083 7.56385 27.2065L16.4293 22.0888C16.5529 22.0175 16.7071 22.1062 16.7071 22.2502V32.8579C16.7362 34.8605 14.4442 36.1345 12.7615 35.083C10.7662 33.9297 5.04936 30.6284 2.97261 29.4286C2.5145 29.1669 2.22945 28.6709 2.22945 28.1445V11.8548C2.22945 11.3254 2.51305 10.8324 2.97261 10.5706L17.0794 2.42651C17.3077 2.29272 17.5651 2.22582 17.8225 2.22582C18.08 2.22582 18.3374 2.29272 18.5657 2.42651L32.6725 10.5706C33.1306 10.8324 33.4156 11.3254 33.4156 11.8548V28.1445H33.4113Z" fill="#FFFDF3"/>
<path d="M58.4932 27.2576H56.4456C56.3016 27.2576 56.1736 27.1761 56.1067 27.0496C55.9744 26.7995 55.8653 26.5333 55.7679 26.2425L54.8764 23.4429C54.5244 22.3028 53.5079 21.5552 52.4084 21.5552H47.5612C47.3518 21.5552 47.1816 21.7254 47.1816 21.9348V26.8795C47.1816 27.0889 47.0115 27.259 46.8021 27.259H44.8649C44.6555 27.259 44.4854 27.0889 44.4854 26.8795V13.1217C44.4854 12.9123 44.6555 12.7421 44.8649 12.7421H53.3828C56.7423 12.7421 58.8161 14.4015 58.8161 17.0556C58.8161 18.7208 57.9072 19.9482 56.3627 20.6056C56.082 20.7248 56.0515 21.1044 56.306 21.2717C56.9008 21.6643 57.3909 22.2737 57.6556 23.1521L58.4845 25.7655C58.6009 26.1392 58.7157 26.4403 58.8423 26.7282C58.9513 26.9784 58.7681 27.2576 58.4947 27.2576H58.4932ZM52.9872 19.397C54.9578 19.397 56.0151 18.6292 56.0151 17.1778C56.0151 15.7264 54.9578 14.9381 52.9872 14.9381H47.5598C47.3503 14.9381 47.1802 15.1083 47.1802 15.3177V19.0175C47.1802 19.2269 47.3503 19.397 47.5598 19.397H52.9872Z" fill="#FFFDF3"/>
<path d="M72.0707 24.104H64.5258C64.3789 24.104 64.2451 24.1884 64.1826 24.3207L62.8955 27.0388C62.833 27.1712 62.6992 27.2555 62.5523 27.2555H60.4508C60.1716 27.2555 59.9884 26.9632 60.1091 26.7116L66.7131 12.9539C66.7756 12.823 66.9094 12.7386 67.0548 12.7386H69.5432C69.6886 12.7386 69.8224 12.823 69.8849 12.9539L76.4889 26.7116C76.6096 26.9632 76.4264 27.2555 76.1472 27.2555H74.0457C73.8988 27.2555 73.765 27.1712 73.7025 27.0388L72.4154 24.3207C72.3529 24.1884 72.2191 24.104 72.0722 24.104H72.0707ZM70.9567 21.2405L68.6502 16.3482C68.5135 16.0588 68.1019 16.0574 67.9638 16.3482L65.6412 21.2405C65.522 21.4921 65.7052 21.783 65.9845 21.783H70.6135C70.8913 21.783 71.076 21.4936 70.9567 21.242V21.2405Z" fill="#FFFDF3"/>
<path d="M89.5707 24.104H82.0258C81.8789 24.104 81.7451 24.1884 81.6826 24.3207L80.3955 27.0388C80.333 27.1712 80.1992 27.2555 80.0523 27.2555H77.9508C77.6716 27.2555 77.4884 26.9632 77.6091 26.7116L84.2131 12.9539C84.2756 12.823 84.4094 12.7386 84.5548 12.7386H87.0432C87.1886 12.7386 87.3224 12.823 87.3849 12.9539L93.9889 26.7116C94.1096 26.9632 93.9264 27.2555 93.6472 27.2555H91.5457C91.3988 27.2555 91.265 27.1712 91.2025 27.0388L89.9154 24.3207C89.8529 24.1884 89.7191 24.104 89.5722 24.104H89.5707ZM88.4567 21.2405L86.1502 16.3482C86.0135 16.0588 85.6019 16.0574 85.4638 16.3482L83.1413 21.2405C83.022 21.4921 83.2052 21.783 83.4845 21.783H88.1135C88.3913 21.783 88.576 21.4936 88.4567 21.242V21.2405Z" fill="#FFFDF3"/>
<path d="M109.793 20.0197C109.793 24.1674 106.765 27.2578 102.015 27.2578H95.3649C95.1555 27.2578 94.9854 27.0876 94.9854 26.8782V13.1205C94.9854 12.911 95.1555 12.7409 95.3649 12.7409H102.015C106.765 12.7409 109.793 15.872 109.793 20.0197ZM106.994 20.0197C106.994 17.178 105.045 15.1667 102.078 15.1667H98.1019C97.8925 15.1667 97.7224 15.3368 97.7224 15.5462V24.4306C97.7224 24.64 97.8925 24.8102 98.1019 24.8102H102.078C105.043 24.8102 106.994 22.8614 106.994 20.0197Z" fill="#FFFDF3"/>
</svg>
